<svg xmlns="http://www.w3.org/2000/svg" viewBox="0 0 180 160"><g fill="none" stroke-width="2"><path stroke="#aae0f7" d="M127.46 15.25q-3.88 4.48-5.25 10.25" vector-effect="non-scaling-stroke"/><path stroke="#c5e8f8" d="m122.21 25.5-9.46 29.96" vector-effect="non-scaling-stroke"/><path stroke="#83cdef" d="m112.75 55.46-1 1.08" vector-effect="non-scaling-stroke"/><path stroke="#8bc4e7" d="m111.75 56.54-1.04-3.29" vector-effect="non-scaling-stroke"/><path stroke="#92d5f3" d="m110.71 53.25-5.25-20.5" vector-effect="non-scaling-stroke"/><path stroke="#aae0f7" d="m105.46 32.75-1.44-4.42" vector-effect="non-scaling-stroke"/><path stroke="#c5e8f8" d="M104.02 28.33c-2.33-9.47-7.85-19.49-19.59-17.85" vector-effect="non-scaling-stroke"/><path stroke="#8bc4e7" d="m84.43 10.48-3.93-.44" vector-effect="non-scaling-stroke"/><path stroke="#aae0f7" d="M80.5 10.04q-11.4.27-22.79.06c-9.16-.17-17.09 7.31-21.96 14.36" vector-effect="non-scaling-stroke"/><path stroke="#c5e8f8" d="M35.75 24.46C25.96 36.97 19.78 51.67 15.4 66.85c-.33 1.16-.11 2.67 1.54 1.72" vector-effect="non-scaling-stroke"/><path stroke="#83cdef" d="m16.94 68.57 4.81.14" vector-effect="non-scaling-stroke"/><path stroke="#86bade" d="m21.75 68.71 10-.25" vector-effect="non-scaling-stroke"/><path stroke="#92d5f3" d="M31.75 68.46c15.99-1.74 18.68-15.71 22.67-30.03" vector-effect="non-scaling-stroke"/><path stroke="#aae0f7" d="M54.42 38.43q4.48-9.21 11.65-16.09a1 1 0 0 1 1.66.47l6.23 23.94" vector-effect="non-scaling-stroke"/><path stroke="#92d5f3" d="M73.96 46.75q1.22 5.37 3.75 10.25" vector-effect="non-scaling-stroke"/><path stroke="#83cdef" d="M77.71 57q4.24 10.88 16.04 10.21" vector-effect="non-scaling-stroke"/><path stroke="#92d5f3" d="M93.75 67.21H95" vector-effect="non-scaling-stroke"/><path stroke="#86bade" d="M95 67.21q11.68.06 23.35.05c7.26-.01 12.99-4.13 16.94-10.01" vector-effect="non-scaling-stroke"/><path stroke="#92d5f3" d="M135.29 57.25q5.22-5.71 9.12-12.43" vector-effect="non-scaling-stroke"/><path stroke="#ddf3fc" d="M144.41 44.82q10.52-16.73 19.84-34.17a1 1 0 0 0-.86-1.47l-7.89-.14" vector-effect="non-scaling-stroke"/><path stroke="#8bc4e7" d="M155.5 9.04h-12" vector-effect="non-scaling-stroke"/><path stroke="#92d5f3" d="M143.5 9.04q-9.39-.21-16.04 6.21" vector-effect="non-scaling-stroke"/><path stroke="#1f9bdc" d="M143.5 9.04q-.87.54-1.47 1.36a1 .99 20.9 0 1-.93.41q-1.25-.15-2.1.9" vector-effect="non-scaling-stroke"/><path stroke="#16a4e4" d="M139 11.71q-5.71 2.94-8.46 8.79" vector-effect="non-scaling-stroke"/><path stroke="#3eb7ec" d="M130.54 20.5q-.9-1.99-2.9-2.59a1 .99-72 0 1-.65-1.28l.47-1.38" vector-effect="non-scaling-stroke"/><path stroke="#0b89cf" d="M126 39.21 122.54 44" vector-effect="non-scaling-stroke"/><path stroke="#49b6e9" d="m122.54 44 4-12.75" vector-effect="non-scaling-stroke"/><path stroke="#2fafe7" d="m126.54 31.25 4-10.75" vector-effect="non-scaling-stroke"/><path stroke="#71caf1" d="M126.54 31.25c.25-4.11-4.47-1.6-4.33-5.75" vector-effect="non-scaling-stroke"/><path stroke="#6ab9e5" d="m155.5 9.04.04.21" vector-effect="non-scaling-stroke"/><path stroke="#52ade1" d="m155.54 9.25-13.58 26.5" vector-effect="non-scaling-stroke"/><path stroke="#1f9bdc" d="m141.96 35.75-.97 2.19" vector-effect="non-scaling-stroke"/><path stroke="#1380c7" d="M140.99 37.94q-6.56 1.86-13.43.65-.5-.09-1.56.62" vector-effect="non-scaling-stroke"/><path stroke="#1092d7" d="M126 39.21q8.84-14.64 14-25.46.87-1.83-1-2.04" vector-effect="non-scaling-stroke"/><path stroke="#106db5" d="M95.96 65.05q5.45.33 9.33-3.55m.96-.21c1.15 3.83 6.03 5.51 7.54.71" vector-effect="non-scaling-stroke"/><path stroke="#0b89cf" d="m113.79 62 .96.04" vector-effect="non-scaling-stroke"/><path stroke="#106db5" d="M114.75 62.04c2.58 10.57 13.43-.66 15.44-4.56a1 1 0 0 0-.88-1.46l-9.31-.08a.99.98 18.2 0 0-.82.41q-.57.79-1.64 1.15" vector-effect="non-scaling-stroke"/><path stroke="#0b89cf" d="M117.54 57.5q3-6.23 4.71-13.04" vector-effect="non-scaling-stroke"/><path stroke="#4da4d8" d="m122.54 44-.29.46" vector-effect="non-scaling-stroke"/><path stroke="#49b6e9" d="M122.25 44.46q-4.39 5.93-9.5 11" vector-effect="non-scaling-stroke"/><path stroke="#70caf1" d="M144.41 44.82q-1.76-3.1.88-5.57" vector-effect="non-scaling-stroke"/><path stroke="#a3ddf6" d="M145.29 39.25q6.95-12.33 11.27-28.72a1.49 1.47-57.2 0 0-.27-1.28q-.16-.19-.75 0" vector-effect="non-scaling-stroke"/><path stroke="#1a91d3" d="M135.29 57.25q.02-1.15-.8-.97a.61.59-74.6 0 0-.35.21l-1.57 1.83a1 1 0 0 1-.98.33q-1.52-.35-.8-1.6 5.52-9.55 10.2-19.11" vector-effect="non-scaling-stroke"/><path stroke="#58bfed" d="M145.29 39.25c-.53-2.68-2.79-1.37-3.33-3.5" vector-effect="non-scaling-stroke"/><path stroke="#0d80c5" d="M117.54 57.5q-.96 2.55-2.79 4.54m-.96-.04-2.08-4.75" vector-effect="non-scaling-stroke"/><path stroke="#1092d7" d="m111.71 57.25.04-.71" vector-effect="non-scaling-stroke"/><path stroke="#1f9bdc" d="m77.29 28.75 3.91 10.4" vector-effect="non-scaling-stroke"/><path stroke="#1a91d3" d="M81.2 39.15q3.04 8.64 7.42 16.63" vector-effect="non-scaling-stroke"/><path stroke="#1c88ca" d="M88.62 55.78q2.36 5.62 7.34 9.27" vector-effect="non-scaling-stroke"/><path stroke="#1a91d3" d="M95.96 65.05q.26 1.17-.96 2.16" vector-effect="non-scaling-stroke"/><path stroke="#16a4e4" d="M93.75 67.21q-1.18-1.01-2.56-1.68c-2.32-1.12-3.57-2.78-5.18-4.57-1.25-1.41-4.72-10.46-8.14-6.66a1.01 1-38.2 0 0-.14 1.13q.42.8-.02 1.57" vector-effect="non-scaling-stroke"/><path stroke="#3eb7ec" d="m96.79 24.5 2.49 8.65a1 .99-25.4 0 0 1.53.54q1.97-1.37 4.65-.94" vector-effect="non-scaling-stroke"/><path stroke="#1f9bdc" d="M110.71 53.25q-2.08-1.68-4.59-1.2a1 1 0 0 0-.72 1.41q1.59 3.38 1.89 7.04" vector-effect="non-scaling-stroke"/><path stroke="#1c88ca" d="m107.29 60.5-1.04.79" vector-effect="non-scaling-stroke"/><path stroke="#1a91d3" d="m106.25 61.29-.96.21" vector-effect="non-scaling-stroke"/><path stroke="#1c88ca" d="m105.29 61.5-3.54-5.54" vector-effect="non-scaling-stroke"/><path stroke="#1a91d3" d="m101.75 55.96-6-16" vector-effect="non-scaling-stroke"/><path stroke="#1f9bdc" d="M95.75 39.96q-1.68-6.6-4.12-12.2" vector-effect="non-scaling-stroke"/><path stroke="#106db5" d="M101.75 55.96q-.85-.46-1.25-1.41a.99.98 77.9 0 0-.94-.61q-4.23.08-8.28.08-2.48 0-2.66 1.76" vector-effect="non-scaling-stroke"/><path stroke="#1577bd" d="m111.71 57.25-4.42 3.25" vector-effect="non-scaling-stroke"/><path stroke="#1a91d3" d="m89.29 21.75 2.34 6.01" vector-effect="non-scaling-stroke"/><path stroke="#1380c7" d="M91.63 27.76q-7.17 1.13-14.34.99" vector-effect="non-scaling-stroke"/><path stroke="#1a91d3" d="m77.29 28.75-5.25-10.17a1.01 1-12.6 0 0-.86-.54L70 18" vector-effect="non-scaling-stroke"/><path stroke="#106db5" d="M70 18q-.69-3.06.46-1.75a.99.99 0 0 0 1.28.19l4.84-3.06a1 1 0 0 0 .46-.94q-.08-.76-.79-.98m-8.56 4.17Q67.05 17.57 70 18" vector-effect="non-scaling-stroke"/><path stroke="#1a91d3" d="M70 18q-.06 1.46-1.5 1.71" vector-effect="non-scaling-stroke"/><path stroke="#329cd7" d="m68.5 19.71-.22.22a1 1 0 0 1-1.62-.3l-.75-1.66a1 1 0 0 0-1.5-.4l-1.89 1.38q-.14.1-.3.14c-1.58.49-7.52 7.95-8.76 9.66" vector-effect="non-scaling-stroke"/><path stroke="#1a91d3" d="m53.46 28.75-3.21 4.04" vector-effect="non-scaling-stroke"/><path stroke="#106db5" d="M50.25 32.79q-1.54 1.07-3.15.36a1 .99 47.9 0 0-.67-.04c-4.01 1.12-7.73.5-12.18 2.35" vector-effect="non-scaling-stroke"/><path stroke="#0b89cf" d="M34.25 35.46q4.53-8.7 10.04-16.92" vector-effect="non-scaling-stroke"/><path stroke="#1380c7" d="M95.75 39.96q-7.32.64-14.55-.81" vector-effect="non-scaling-stroke"/><path stroke="#3eb7ec" d="M68.5 19.71q1.33-.08 1.87 1.14 4.24 9.68 7.22 19.8a1 1 0 0 1-.93 1.28q-4.14.13-2.7 4.82m-19.54-8.32c-.25-1.75.69-2.59 1.09-3.76q.41-1.2.95-2.41a1.01 1 16.5 0 0-.76-1.39l-1.36-.21a1.01 1.01 0 0 1-.8-.69q-.18-.58-.08-1.22" vector-effect="non-scaling-stroke"/><path stroke="#52ade1" d="M84.43 10.48q6.52 2.29 9.61 8.52" vector-effect="non-scaling-stroke"/><path stroke="#1f9bdc" d="M94.04 19q-1.04 1.97-3.11 1.66a1 .98 21.2 0 0-.98.42q-.27.4-.66.67" vector-effect="non-scaling-stroke"/><path stroke="#1380c7" d="M89.29 21.75q-3.11-7.12-9.79-10.96" vector-effect="non-scaling-stroke"/><path stroke="#71caf1" d="M104.02 28.33q-1.79-5.04-7.23-3.83" vector-effect="non-scaling-stroke"/><path stroke="#58bfed" d="M96.79 24.5 94.04 19" vector-effect="non-scaling-stroke"/><path stroke="#37a6df" d="m80.5 10.04-1 .75" vector-effect="non-scaling-stroke"/><path stroke="#329cd7" d="M79.5 10.79q-1.72-.15-3.25.67" vector-effect="non-scaling-stroke"/><path stroke="#3493cd" d="M76.25 11.46q-4.42.56-8.56 4.17" vector-effect="non-scaling-stroke"/><path stroke="#329cd7" d="M67.69 15.63q-5.35-5.03-12.13-4.34c-4.66.48-8.39 3.7-11.27 7.25" vector-effect="non-scaling-stroke"/><path stroke="#2fafe7" d="M44.29 18.54q-4.69 2.49-7.25 7.21" vector-effect="non-scaling-stroke"/><path stroke="#71caf1" d="m37.04 25.75-1.29-1.29" vector-effect="non-scaling-stroke"/><path stroke="#0d80c5" d="M34.25 35.46Q28.63 45.74 26 51.75q-.96 2.2-1.71 3" vector-effect="non-scaling-stroke"/><path stroke="#49b6e9" d="M24.29 54.75q-.16-.72.21-2 4.32-14.99 12.54-27" vector-effect="non-scaling-stroke"/><path stroke="#0d80c5" d="m46 38.96-7.79 12.79" vector-effect="non-scaling-stroke"/><path stroke="#106db5" d="m38.21 51.75-8.29 15.71a.99.99 0 0 1-.72.52q-4.26.72-7.41-.23" vector-effect="non-scaling-stroke"/><path stroke="#0d80c5" d="M21.79 67.75q.69-6.5 2.46-12.79" vector-effect="non-scaling-stroke"/><path stroke="#1a91d3" d="M31.75 68.46c6.63-3.29 8.42-8.22 11.5-13.92" vector-effect="non-scaling-stroke"/><path stroke="#16a4e4" d="M43.25 54.54q3.84-7.58 8.52-14.66c1.63-2.48-3.05-1.09-4.14-1.46a1.01 1-56.7 0 0-1 .21q-.29.26-.63.33" vector-effect="non-scaling-stroke"/><path stroke="#1c88ca" d="m46 38.96 4.25-6.17" vector-effect="non-scaling-stroke"/><path stroke="#4f9bcf" d="m24.29 54.75-.04.21" vector-effect="non-scaling-stroke"/><path stroke="#49b6e9" d="M24.25 54.96c-1.14.19-5.54 9.89-7.31 13.61" vector-effect="non-scaling-stroke"/><path stroke="#0b89cf" d="M43.25 54.54q-1.99-.78-4.07-.7a1.01 1.01 0 0 1-1.04-1.07l.07-1.02M21.75 68.71l.04-.96" vector-effect="non-scaling-stroke"/><path stroke="#9e9d9e" d="M144 65q1.21.2.75 1.57a.52.51 34.7 0 0 .1.51c.92 1.04 1.32-9.46-.85-2.08m0 0q-2.04.55-2.21-1.28a1.01 1 .4 0 0-.89-.9l-2.09-.24a1 1 0 0 0-1.1 1.12l.26 2.06q.33 2.61.81.03.13-.71.02-1.48a1.01 1.01 0 0 1 .95-1.15l.4-.02a.65.65 0 0 1 .66.76l-.45 2.46a.65.64 30.4 0 0 .14.52c.71.88.1-2.06 1.23-1.69a.82.81-1.6 0 1 .49.46q1.32 3.16 1.78-.65" vector-effect="non-scaling-stroke"/><path stroke="#7f7f7f" d="m116 84.71 56.21-.27a.52.51 3.8 0 0 .51-.44l.04-.29a.34.32-86.1 0 0-.32-.38l-56.69-.29" vector-effect="non-scaling-stroke"/><path stroke="#9e9d9e" d="M115.75 83.04q-54.95-.22-109.89-.03c-.83 0-3.24-.71-2.12 1.4a.99.98-14.1 0 0 .89.53L116 84.71" vector-effect="non-scaling-stroke"/><path stroke="#1f1e1f" d="M115.75 83.04q-.85.91.25 1.67" vector-effect="non-scaling-stroke"/><path stroke="#7f7f7f" d="M55.02 125.55c1.8 4.56-3.04 6.22-6.65 5.94q-3.1-.25-5.96-1.59a1 1 0 0 0-1.42.96l.09 1.66a.99.99 0 0 0 .64.88q5.65 2.15 11.2.76c5.14-1.29 7.74-6.27 5.23-11.01-2.71-5.12-11.37-5.45-13.18-10.39q-1.6-4.35 3.77-5.6 3.57-.83 7.64.79a1 1 0 0 0 1.37-.93v-1.58a1.01 1-82.5 0 0-.74-.97c-4.56-1.22-9.88-1.13-13.55 2.07q-4.59 4.01-.91 9.42c2.97 4.37 10.57 4.77 12.47 9.59m-42.13 4.37q-.55 1.42-1.14 2.97a1 1 0 0 0 .93 1.36h1.73a1 1 0 0 0 .94-.66l2.58-7.18a1 1 0 0 1 .94-.66h11.28a1 .99-10 0 1 .94.65l2.71 7.21a.99.99 0 0 0 .93.65l1.77-.01a1 1 0 0 0 .94-1.36l-10.8-28a1.01 1.01 0 0 0-.94-.64h-2.29a1 .99 10.2 0 0-.93.64q-4.82 12.52-9.59 25.03m63.64-7.57c10.4-3.18 9.19-17.84-3.04-18.05q-4.61-.08-7.32.05a1 .99 88.8 0 0-.95 1l.02 27.91a1 1 0 0 0 1.02 1l1.49-.03a1 .99-1.7 0 0 .98-1.03l-.3-9.45a1.01.99 74 0 1 .49-.9q.61-.36 1.33.04a1.06 1.03 54.6 0 0 .61.11c1.89-.25 4.01-.14 5.67-.65m26.89-11.25 14.62 22.69a1.02 1 73.1 0 0 .84.46h2.9a1 1 0 0 0 1-1l-.1-28.01a1 .99 0 0 0-1-.99h-1.45a.99.99 0 0 0-.99 1l.04 21.74q0 2.76-1.48.44l-14.46-22.72a1.02 1.01-16.5 0 0-.85-.46H99.5a1 1 0 0 0-1 1v28a1 1 0 0 0 1 1h1.53a1 1 0 0 0 1-1l-.08-21.72q-.01-2.74 1.47-.43m31.17 19.9a.59.59 0 0 1-.59-.59v-9.32a.59.59 0 0 1 .59-.59h9.7a.59.59 0 0 0 .59-.61l-.07-1.79a.59.59 0 0 0-.58-.57l-9.65-.09a.59.59 0 0 1-.58-.59v-8.76a.59.59 0 0 1 .59-.59h10.48a.59.59 0 0 0 .59-.56l.12-2.07a.59.59 0 0 0-.59-.62h-14.1a.59.59 0 0 0-.59.59v28.82a.59.59 0 0 0 .59.59h14.82a.59.59 0 0 0 .59-.59v-2.07a.59.59 0 0 0-.59-.59h-11.32m26.66-23.02a.48.48 0 0 1 .48-.48h7.55a.48.48 0 0 0 .48-.44l.21-2.29a.48.48 0 0 0-.48-.52h-19.76a.48.48 0 0 0-.48.48v2.29a.48.48 0 0 0 .48.48h7.54a.48.48 0 0 1 .48.48v25.62a.48.48 0 0 0 .47.48l2.54.03a.48.48 0 0 0 .49-.48v-25.65m-69.08 24.35a2.26 2.26 0 0 0-2.26-2.26 2.26 2.26 0 0 0-2.26 2.26 2.26 2.26 0 0 0 2.26 2.26 2.26 2.26 0 0 0 2.26-2.26" vector-effect="non-scaling-stroke"/><path stroke="#7f7f7f" d="m23.56 111.02-3.76 10.39a1 1 0 0 0 .94 1.34h7.5a1 1 0 0 0 .94-1.34l-3.74-10.39q-.94-2.61-1.88 0m51.77-3.16q-2.77-.92-5.83-.27a1 1 0 0 0-.79.98l.05 10.18a1.01 1.01 0 0 0 .97 1q4.85.18 5.98-.45c5.44-3.02 5.76-9.41-.38-11.44" vector-effect="non-scaling-stroke"/></g><path fill="#fefefe" d="M0 0h180v160H0V0Zm127.46 15.25q-3.88 4.48-5.25 10.25l-9.46 29.96-1 1.08-1.04-3.29-5.25-20.5-1.44-4.42c-2.33-9.47-7.85-19.49-19.59-17.85l-3.93-.44q-11.4.27-22.79.06c-9.16-.17-17.09 7.31-21.96 14.36-9.79 12.51-15.97 27.21-20.35 42.39-.33 1.16-.11 2.67 1.54 1.72l4.81.14 10-.25c15.99-1.74 18.68-15.71 22.67-30.03q4.48-9.21 11.65-16.09a1 1 0 0 1 1.66.47l6.23 23.94q1.22 5.37 3.75 10.25 4.24 10.88 16.04 10.21H95q11.68.06 23.35.05c7.26-.01 12.99-4.13 16.94-10.01q5.22-5.71 9.12-12.43 10.52-16.73 19.84-34.17a1 1 0 0 0-.86-1.47l-7.89-.14h-12q-9.39-.21-16.04 6.21ZM144 65q1.21.2.75 1.57a.52.51 34.7 0 0 .1.51c.92 1.04 1.32-9.46-.85-2.08q-2.04.55-2.21-1.28a1.01 1 .4 0 0-.89-.9l-2.09-.24a1 1 0 0 0-1.1 1.12l.26 2.06q.33 2.61.81.03.13-.71.02-1.48a1.01 1.01 0 0 1 .95-1.15l.4-.02a.65.65 0 0 1 .66.76l-.45 2.46a.65.64 30.4 0 0 .14.52c.71.88.1-2.06 1.23-1.69a.82.81-1.6 0 1 .49.46q1.32 3.16 1.78-.65Zm-28 19.71 56.21-.27a.52.51 3.8 0 0 .51-.44l.04-.29a.34.32-86.1 0 0-.32-.38l-56.69-.29q-54.95-.22-109.89-.03c-.83 0-3.24-.71-2.12 1.4a.99.98-14.1 0 0 .89.53L116 84.71Zm-60.98 40.84c1.8 4.56-3.04 6.22-6.65 5.94q-3.1-.25-5.96-1.59a1 1 0 0 0-1.42.96l.09 1.66a.99.99 0 0 0 .64.88q5.65 2.15 11.2.76c5.14-1.29 7.74-6.27 5.23-11.01-2.71-5.12-11.37-5.45-13.18-10.39q-1.6-4.35 3.77-5.6 3.57-.83 7.64.79a1 1 0 0 0 1.37-.93v-1.58a1.01 1-82.5 0 0-.74-.97c-4.56-1.22-9.88-1.13-13.55 2.07q-4.59 4.01-.91 9.42c2.97 4.37 10.57 4.77 12.47 9.59Zm-42.13 4.37q-.55 1.42-1.14 2.97a1 1 0 0 0 .93 1.36h1.73a1 1 0 0 0 .94-.66l2.58-7.18a1 1 0 0 1 .94-.66h11.28a1 .99-10 0 1 .94.65l2.71 7.21a.99.99 0 0 0 .93.65l1.77-.01a1 1 0 0 0 .94-1.36l-10.8-28a1.01 1.01 0 0 0-.94-.64h-2.29a1 .99 10.2 0 0-.93.64q-4.82 12.52-9.59 25.03Zm63.64-7.57c10.4-3.18 9.19-17.84-3.04-18.05q-4.61-.08-7.32.05a1 .99 88.8 0 0-.95 1l.02 27.91a1 1 0 0 0 1.02 1l1.49-.03a1 .99-1.7 0 0 .98-1.03l-.3-9.45a1.01.99 74 0 1 .49-.9q.61-.36 1.33.04a1.06 1.03 54.6 0 0 .61.11c1.89-.25 4.01-.14 5.67-.65Zm26.89-11.25 14.62 22.69a1.02 1 73.1 0 0 .84.46h2.9a1 1 0 0 0 1-1l-.1-28.01a1 .99 0 0 0-1-.99h-1.45a.99.99 0 0 0-.99 1l.04 21.74q0 2.76-1.48.44l-14.46-22.72a1.02 1.01-16.5 0 0-.85-.46H99.5a1 1 0 0 0-1 1v28a1 1 0 0 0 1 1h1.53a1 1 0 0 0 1-1l-.08-21.72q-.01-2.74 1.47-.43Zm31.17 19.9a.59.59 0 0 1-.59-.59v-9.32a.59.59 0 0 1 .59-.59h9.7a.59.59 0 0 0 .59-.61l-.07-1.79a.59.59 0 0 0-.58-.57l-9.65-.09a.59.59 0 0 1-.58-.59v-8.76a.59.59 0 0 1 .59-.59h10.48a.59.59 0 0 0 .59-.56l.12-2.07a.59.59 0 0 0-.59-.62h-14.1a.59.59 0 0 0-.59.59v28.82a.59.59 0 0 0 .59.59h14.82a.59.59 0 0 0 .59-.59v-2.07a.59.59 0 0 0-.59-.59h-11.32Zm26.66-23.02a.48.48 0 0 1 .48-.48h7.55a.48.48 0 0 0 .48-.44l.21-2.29a.48.48 0 0 0-.48-.52h-19.76a.48.48 0 0 0-.48.48v2.29a.48.48 0 0 0 .48.48h7.54a.48.48 0 0 1 .48.48v25.62a.48.48 0 0 0 .47.48l2.54.03a.48.48 0 0 0 .49-.48v-25.65Zm-69.08 24.35a2.26 2.26 0 0 0-2.26-2.26 2.26 2.26 0 0 0-2.26 2.26 2.26 2.26 0 0 0 2.26 2.26 2.26 2.26 0 0 0 2.26-2.26Z"/><path fill="#25ace8" d="M143.5 9.04q-.87.54-1.47 1.36a1 .99 20.9 0 1-.93.41q-1.25-.15-2.1.9-5.71 2.94-8.46 8.79-.9-1.99-2.9-2.59a1 .99-72 0 1-.65-1.28l.47-1.38q6.65-6.42 16.04-6.21Z"/><path fill="#1889cf" d="M143.5 9.04h12l.04.21-13.58 26.5-.97 2.19q-6.56 1.86-13.43.65-.5-.09-1.56.62 8.84-14.64 14-25.46.87-1.83-1-2.04.85-1.05 2.1-.9a1 .99 20.9 0 0 .93-.41q.6-.82 1.47-1.36Z"/><path fill="#bbe8fa" d="m155.5 9.04 7.89.14a1 1 0 0 1 .86 1.47q-9.32 17.44-19.84 34.17-1.76-3.1.88-5.57 6.95-12.33 11.27-28.72a1.49 1.47-57.2 0 0-.27-1.28q-.16-.19-.75 0l-.04-.21Z"/><path fill="#8bd1f2" d="M155.54 9.25q.59-.19.75 0a1.49 1.47-57.2 0 1 .27 1.28q-4.32 16.39-11.27 28.72c-.53-2.68-2.79-1.37-3.33-3.5l13.58-26.5Z"/><path fill="#56c2ef" d="m80.5 10.04-1 .75q-1.72-.15-3.25.67-4.42.56-8.56 4.17-5.35-5.03-12.13-4.34c-4.66.48-8.39 3.7-11.27 7.25q-4.69 2.49-7.25 7.21l-1.29-1.29c4.87-7.05 12.8-14.53 21.96-14.36q11.39.21 22.79-.06Z"/><path fill="#1889cf" d="m80.5 10.04 3.93.44q6.52 2.29 9.61 8.52-1.04 1.97-3.11 1.66a1 .98 21.2 0 0-.98.42q-.27.4-.66.67-3.11-7.12-9.79-10.96l1-.75Z"/><path fill="#8bd1f2" d="M84.43 10.48c11.74-1.64 17.26 8.38 19.59 17.85q-1.79-5.04-7.23-3.83L94.04 19q-3.09-6.23-9.61-8.52Z"/><path fill="#0e76be" d="M79.5 10.79q6.68 3.84 9.79 10.96l2.34 6.01q-7.17 1.13-14.34.99l-5.25-10.17a1.01 1-12.6 0 0-.86-.54L70 18q-.69-3.06.46-1.75a.99.99 0 0 0 1.28.19l4.84-3.06a1 1 0 0 0 .46-.94q-.08-.76-.79-.98 1.53-.82 3.25-.67Zm-11.81 4.84Q67.05 17.57 70 18q-.06 1.46-1.5 1.71l-.22.22a1 1 0 0 1-1.62-.3l-.75-1.66a1 1 0 0 0-1.5-.4l-1.89 1.38q-.14.1-.3.14c-1.58.49-7.52 7.95-8.76 9.66l-3.21 4.04q-1.54 1.07-3.15.36a1 .99 47.9 0 0-.67-.04c-4.01 1.12-7.73.5-12.18 2.35q4.53-8.7 10.04-16.92c2.88-3.55 6.61-6.77 11.27-7.25q6.78-.69 12.13 4.34Z"/><path fill="#1264ab" d="M76.25 11.46q.71.22.79.98a1 1 0 0 1-.46.94l-4.84 3.06a.99.99 0 0 1-1.28-.19Q69.31 14.94 70 18q-2.95-.43-2.31-2.37 4.14-3.61 8.56-4.17Z"/><path fill="#079bdf" d="M139 11.71q1.87.21 1 2.04-5.16 10.82-14 25.46L122.54 44l4-12.75 4-10.75q2.75-5.85 8.46-8.79Z"/><path fill="#56c2ef" d="m127.46 15.25-.47 1.38a1 .99-72 0 0 .65 1.28q2 .6 2.9 2.59l-4 10.75c.25-4.11-4.47-1.6-4.33-5.75q1.37-5.77 5.25-10.25ZM68.5 19.71q1.33-.08 1.87 1.14 4.24 9.68 7.22 19.8a1 1 0 0 1-.93 1.28q-4.14.13-2.7 4.82l-6.23-23.94a1 1 0 0 0-1.66-.47q-7.17 6.88-11.65 16.09c-.25-1.75.69-2.59 1.09-3.76q.41-1.2.95-2.41a1.01 1 16.5 0 0-.76-1.39l-1.36-.21a1.01 1.01 0 0 1-.8-.69q-.18-.58-.08-1.22c1.24-1.71 7.18-9.17 8.76-9.66q.16-.04.3-.14l1.89-1.38a1 1 0 0 1 1.5.4l.75 1.66a1 1 0 0 0 1.62.3l.22-.22Z"/><path fill="#25ace8" d="m70 18 1.18.04a1.01 1-12.6 0 1 .86.54l5.25 10.17 3.91 10.4q3.04 8.64 7.42 16.63 2.36 5.62 7.34 9.27.26 1.17-.96 2.16h-1.25q-1.18-1.01-2.56-1.68c-2.32-1.12-3.57-2.78-5.18-4.57-1.25-1.41-4.72-10.46-8.14-6.66a1.01 1-38.2 0 0-.14 1.13q.42.8-.02 1.57-2.53-4.88-3.75-10.25-1.44-4.69 2.7-4.82a1 1 0 0 0 .93-1.28q-2.98-10.12-7.22-19.8-.54-1.22-1.87-1.14 1.44-.25 1.5-1.71Z"/><path fill="#079bdf" d="M44.29 18.54q-5.51 8.22-10.04 16.92Q28.63 45.74 26 51.75q-.96 2.2-1.71 3-.16-.72.21-2 4.32-14.99 12.54-27 2.56-4.72 7.25-7.21Z"/><path fill="#25ace8" d="m94.04 19 2.75 5.5 2.49 8.65a1 .99-25.4 0 0 1.53.54q1.97-1.37 4.65-.94l5.25 20.5q-2.08-1.68-4.59-1.2a1 1 0 0 0-.72 1.41q1.59 3.38 1.89 7.04l-1.04.79-.96.21-3.54-5.54-6-16q-1.68-6.6-4.12-12.2l-2.34-6.01q.39-.27.66-.67a1 .98 21.2 0 1 .98-.42q2.07.31 3.11-1.66Z"/><path fill="#56c2ef" d="m104.02 28.33 1.44 4.42q-2.68-.43-4.65.94a1 .99-25.4 0 1-1.53-.54l-2.49-8.65q5.44-1.21 7.23 3.83Z"/><path fill="#8bd1f2" d="m35.75 24.46 1.29 1.29q-8.22 12.01-12.54 27-.37 1.28-.21 2l-.04.21c-1.14.19-5.54 9.89-7.31 13.61-1.65.95-1.87-.56-1.54-1.72 4.38-15.18 10.56-29.88 20.35-42.39Zm86.46 1.04c-.14 4.15 4.58 1.64 4.33 5.75l-4 12.75-.29.46q-4.39 5.93-9.5 11l9.46-29.96Z"/><path fill="#1889cf" d="M91.63 27.76q2.44 5.6 4.12 12.2-7.32.64-14.55-.81l-3.91-10.4q7.17.14 14.34-.99Z"/><path fill="#25ace8" d="M53.46 28.75q-.1.64.08 1.22a1.01 1.01 0 0 0 .8.69l1.36.21a1.01 1 16.5 0 1 .76 1.39q-.54 1.21-.95 2.41c-.4 1.17-1.34 2.01-1.09 3.76-3.99 14.32-6.68 28.29-22.67 30.03 6.63-3.29 8.42-8.22 11.5-13.92q3.84-7.58 8.52-14.66c1.63-2.48-3.05-1.09-4.14-1.46a1.01 1-56.7 0 0-1 .21q-.29.26-.63.33l4.25-6.17 3.21-4.04Z"/><path fill="#1264ab" d="M50.25 32.79 46 38.96l-7.79 12.79-8.29 15.71a.99.99 0 0 1-.72.52q-4.26.72-7.41-.23.69-6.5 2.46-12.79l.04-.21q.75-.8 1.71-3 2.63-6.01 8.25-16.29c4.45-1.85 8.17-1.23 12.18-2.35a1 .99 47.9 0 1 .67.04q1.61.71 3.15-.36Z"/><path fill="#25ace8" d="M141.96 35.75c.54 2.13 2.8.82 3.33 3.5q-2.64 2.47-.88 5.57-3.9 6.72-9.12 12.43.02-1.15-.8-.97a.61.59-74.6 0 0-.35.21l-1.57 1.83a1 1 0 0 1-.98.33q-1.52-.35-.8-1.6 5.52-9.55 10.2-19.11l.97-2.19Z"/><path fill="#0e76be" d="M140.99 37.94q-4.68 9.56-10.2 19.11-.72 1.25.8 1.6a1 1 0 0 0 .98-.33l1.57-1.83a.61.59-74.6 0 1 .35-.21q.82-.18.8.97c-3.95 5.88-9.68 10-16.94 10.01q-11.67.01-23.35-.05 1.22-.99.96-2.16 5.45.33 9.33-3.55l.96-.21c1.15 3.83 6.03 5.51 7.54.71l.96.04c2.58 10.57 13.43-.66 15.44-4.56a1 1 0 0 0-.88-1.46l-9.31-.08a.99.98 18.2 0 0-.82.41q-.57.79-1.64 1.15 3-6.23 4.71-13.04l.29-.46 3.46-4.79q1.06-.71 1.56-.62 6.87 1.21 13.43-.65Z"/><path fill="#079bdf" d="M43.25 54.54q-1.99-.78-4.07-.7a1.01 1.01 0 0 1-1.04-1.07l.07-1.02L46 38.96q.34-.07.63-.33a1.01 1-56.7 0 1 1-.21c1.09.37 5.77-1.02 4.14 1.46q-4.68 7.08-8.52 14.66Z"/><path fill="#0e76be" d="M81.2 39.15q7.23 1.45 14.55.81l6 16q-.85-.46-1.25-1.41a.99.98 77.9 0 0-.94-.61q-4.23.08-8.28.08-2.48 0-2.66 1.76-4.38-7.99-7.42-16.63Z"/><path fill="#079bdf" d="M122.25 44.46q-1.71 6.81-4.71 13.04-.96 2.55-2.79 4.54l-.96-.04-2.08-4.75.04-.71 1-1.08q5.11-5.07 9.5-11Z"/><path fill="#0e76be" d="m38.21 51.75-.07 1.02a1.01 1.01 0 0 0 1.04 1.07q2.08-.08 4.07.7c-3.08 5.7-4.87 10.63-11.5 13.92l-10 .25.04-.96q3.15.95 7.41.23a.99.99 0 0 0 .72-.52l8.29-15.71Z"/><path fill="#1889cf" d="m110.71 53.25 1.04 3.29-.04.71-4.42 3.25q-.3-3.66-1.89-7.04a1 1 0 0 1 .72-1.41q2.51-.48 4.59 1.2Z"/><path fill="#079bdf" d="M93.75 67.21q-11.8.67-16.04-10.21.44-.77.02-1.57a1.01 1-38.2 0 1 .14-1.13c3.42-3.8 6.89 5.25 8.14 6.66 1.61 1.79 2.86 3.45 5.18 4.57q1.38.67 2.56 1.68Z"/><path fill="#1264ab" d="m101.75 55.96 3.54 5.54q-3.88 3.88-9.33 3.55-4.98-3.65-7.34-9.27.18-1.76 2.66-1.76 4.05 0 8.28-.08a.99.98 77.9 0 1 .94.61q.4.95 1.25 1.41Z"/><path fill="#079bdf" d="M24.25 54.96q-1.77 6.29-2.46 12.79l-.04.96-4.81-.14c1.77-3.72 6.17-13.42 7.31-13.61Z"/><path fill="#1264ab" d="M114.75 62.04q1.83-1.99 2.79-4.54 1.07-.36 1.64-1.15a.99.98 18.2 0 1 .82-.41l9.31.08a1 1 0 0 1 .88 1.46c-2.01 3.9-12.86 15.13-15.44 4.56Zm-3.04-4.79 2.08 4.75c-1.51 4.8-6.39 3.12-7.54-.71l1.04-.79 4.42-3.25Z"/><path fill="#3d3c3d" d="M144 65q-.46 3.81-1.78.65a.82.81-1.6 0 0-.49-.46c-1.13-.37-.52 2.57-1.23 1.69a.65.64 30.4 0 1-.14-.52l.45-2.46a.65.65 0 0 0-.66-.76l-.4.02a1.01 1.01 0 0 0-.95 1.15q.11.77-.02 1.48-.48 2.58-.81-.03l-.26-2.06a1 1 0 0 1 1.1-1.12l2.09.24a1.01 1 .4 0 1 .89.9q.17 1.83 2.21 1.28Zm0 0c2.17-7.38 1.77 3.12.85 2.08a.52.51 34.7 0 1-.1-.51q.46-1.37-.75-1.57Zm-28.25 18.04q-.85.91.25 1.67l-111.37.23a.99.98-14.1 0 1-.89-.53c-1.12-2.11 1.29-1.4 2.12-1.4q54.94-.19 109.89.03Z"/><path d="m115.75 83.04 56.69.29a.34.32-86.1 0 1 .32.38l-.04.29a.52.51 3.8 0 1-.51.44l-56.21.27q-1.1-.76-.25-1.67Zm-60.73 42.51c-1.9-4.82-9.5-5.22-12.47-9.59q-3.68-5.41.91-9.42c3.67-3.2 8.99-3.29 13.55-2.07a1.01 1-82.5 0 1 .74.97v1.58a1 1 0 0 1-1.37.93q-4.07-1.62-7.64-.79-5.37 1.25-3.77 5.6c1.81 4.94 10.47 5.27 13.18 10.39 2.51 4.74-.09 9.72-5.23 11.01q-5.55 1.39-11.2-.76a.99.99 0 0 1-.64-.88l-.09-1.66a1 1 0 0 1 1.42-.96q2.86 1.34 5.96 1.59c3.61.28 8.45-1.38 6.65-5.94Zm-42.13 4.37q4.77-12.51 9.59-25.03a1 .99 10.2 0 1 .93-.64h2.29a1.01 1.01 0 0 1 .94.64l10.8 28a1 1 0 0 1-.94 1.36l-1.77.01a.99.99 0 0 1-.93-.65l-2.71-7.21a1 .99-10 0 0-.94-.65H18.87a1 1 0 0 0-.94.66l-2.58 7.18a1 1 0 0 1-.94.66h-1.73a1 1 0 0 1-.93-1.36q.59-1.55 1.14-2.97Zm10.67-18.9-3.76 10.39a1 1 0 0 0 .94 1.34h7.5a1 1 0 0 0 .94-1.34l-3.74-10.39q-.94-2.61-1.88 0Zm49.93-6.72c12.23.21 13.44 14.87 3.04 18.05-1.66.51-3.78.4-5.67.65a1.06 1.03 54.6 0 1-.61-.11q-.72-.4-1.33-.04a1.01.99 74 0 0-.49.9l.3 9.45a1 .99-1.7 0 1-.98 1.03l-1.49.03a1 1 0 0 1-1.02-1l-.02-27.91a1 .99 88.8 0 1 .95-1q2.71-.13 7.32-.05Zm1.84 3.56q-2.77-.92-5.83-.27a1 1 0 0 0-.79.98l.05 10.18a1.01 1.01 0 0 0 .97 1q4.85.18 5.98-.45c5.44-3.02 5.76-9.41-.38-11.44Zm26.62 3.67.08 21.72a1 1 0 0 1-1 1H99.5a1 1 0 0 1-1-1v-28a1 1 0 0 1 1-1h2.99a1.02 1.01-16.5 0 1 .85.46l14.46 22.72q1.48 2.32 1.48-.44l-.04-21.74a.99.99 0 0 1 .99-1h1.45a1 .99 0 0 1 1 .99l.1 28.01a1 1 0 0 1-1 1h-2.9a1.02 1 73.1 0 1-.84-.46l-14.62-22.69q-1.48-2.31-1.47.43ZM134.59 131h11.32a.59.59 0 0 1 .59.59v2.07a.59.59 0 0 1-.59.59h-14.82a.59.59 0 0 1-.59-.59v-28.82a.59.59 0 0 1 .59-.59h14.1a.59.59 0 0 1 .59.62l-.12 2.07a.59.59 0 0 1-.59.56h-10.48a.59.59 0 0 0-.59.59v8.76a.59.59 0 0 0 .58.59l9.65.09a.59.59 0 0 1 .58.57l.07 1.79a.59.59 0 0 1-.59.61h-9.7a.59.59 0 0 0-.59.59v9.32a.59.59 0 0 0 .59.59Zm26.66-23.02v25.65a.48.48 0 0 1-.49.48l-2.54-.03a.48.48 0 0 1-.47-.48v-25.62a.48.48 0 0 0-.48-.48h-7.54a.48.48 0 0 1-.48-.48v-2.29a.48.48 0 0 1 .48-.48h19.76a.48.48 0 0 1 .48.52l-.21 2.29a.48.48 0 0 1-.48.44h-7.55a.48.48 0 0 0-.48.48Z"/><path fill="#fefefe" d="M75.33 107.86c6.14 2.03 5.82 8.42.38 11.44q-1.13.63-5.98.45a1.01 1.01 0 0 1-.97-1l-.05-10.18a1 1 0 0 1 .79-.98q3.06-.65 5.83.27Zm-51.77 3.16q.94-2.61 1.88 0l3.74 10.39a1 1 0 0 1-.94 1.34h-7.5a1 1 0 0 1-.94-1.34l3.76-10.39Z"/><circle cx="89.91" cy="132.33" r="2.26"/></svg>